<svg width="1440" height="326" viewBox="0 0 1440 326" fill="none" xmlns="http://www.w3.org/2000/svg">
<path d="M1230 193.917C1288.07 165.797 1337.85 174.501 1356.52 178.351C1394.89 193.917 1419.26 206.37 1440 193.917" stroke="black" stroke-width="2"/>
<path d="M1337.13 213.062L1326.47 184.064L1356.06 192.934L1340.25 197.027L1337.13 213.062Z" fill="#F9BC15"/>
<path d="M1340.25 197.027L1356.06 192.934L1326.47 184.064L1337.13 213.062L1340.25 197.027ZM1340.25 197.027L1351.42 207.537" stroke="black" stroke-width="2" stroke-linecap="round"/>
<circle cx="1292.5" cy="173.5" r="14.75" fill="#4285F4" stroke="black" stroke-width="1.5"/>
<path d="M1 1V1C41.3985 10.8145 71.0095 45.342 74.5522 86.7644L81.9768 173.576C88.2081 246.436 140.053 307.282 211 325V325" stroke="black" stroke-width="2" stroke-dasharray="4 4"/>
<circle cx="65.5" cy="65.5" r="14.75" fill="#EA4535" stroke="black" stroke-width="1.5"/>
<path d="M106.148 89.1477L122.08 85.5403L92.7701 75.7702L102.54 105.081L106.148 89.1477ZM106.148 89.1477L116.995 99.9947" stroke="black" stroke-width="2" stroke-linecap="round"/>
</svg>
