<svg xmlns="http://www.w3.org/2000/svg" fill="none" viewBox="0 0 408.96 393.79646017699116" style="max-height: 500px" width="408.96" height="393.79646017699116">
<path stroke-width="2" stroke="black" d="M1230 193.917C1288.07 165.797 1337.85 174.501 1356.52 178.351C1394.89 193.917 1419.26 206.37 1440 193.917"/>
<path fill="#F9BC15" d="M1337.13 213.062L1326.47 184.064L1356.06 192.934L1340.25 197.027L1337.13 213.062Z"/>
<path stroke-linecap="round" stroke-width="2" stroke="black" d="M1340.25 197.027L1356.06 192.934L1326.47 184.064L1337.13 213.062L1340.25 197.027ZM1340.25 197.027L1351.42 207.537"/>
<circle stroke-width="1.5" stroke="black" fill="#4285F4" r="14.75" cy="173.5" cx="1292.5"/>
<path stroke-dasharray="4 4" stroke-width="2" stroke="black" d="M1 1V1C41.3985 10.8145 71.0095 45.342 74.5522 86.7644L81.9768 173.576C88.2081 246.436 140.053 307.282 211 325V325"/>
<circle stroke-width="1.5" stroke="black" fill="#EA4535" r="14.75" cy="65.5" cx="65.5"/>
<path stroke-linecap="round" stroke-width="2" stroke="black" d="M106.148 89.1477L122.08 85.5403L92.7701 75.7702L102.54 105.081L106.148 89.1477ZM106.148 89.1477L116.995 99.9947"/>
</svg>