<svg width="258" height="135" viewBox="0 0 258 135" fill="none" xmlns="http://www.w3.org/2000/svg">
<path d="M133.334 1.79041C102.344 1.79041 76.0542 24.9594 72.176 55.6725L71.9794 57.2636H70.3888C70.2637 57.2457 70.1564 57.2278 70.0313 57.2278C69.9777 57.2278 69.942 57.2278 69.8884 57.2278C55.2691 57.2278 42.3297 66.5598 37.683 80.4504L37.129 82.113L35.4669 81.5946C33.0005 80.8437 30.4627 80.4683 27.8891 80.4683C13.5915 80.4683 1.97473 92.0885 1.97473 106.39C1.97473 120.692 13.5915 132.312 27.8891 132.312C29.8015 132.312 31.7674 132.08 33.7333 131.615L35.9315 131.115V132.312H214.652C237.313 132.312 255.757 113.863 255.757 91.1946C255.757 68.5263 237.313 50.0769 214.652 50.0769C208.325 50.0769 202.266 51.4714 196.619 54.2423L194.474 55.2971L194.063 52.9552C188.97 23.2968 163.43 1.79041 133.334 1.79041ZM133.334 0.00268555C164.682 0.00268555 190.685 22.7426 195.832 52.6155C201.516 49.8445 207.896 48.2713 214.652 48.2713C238.332 48.2713 257.544 67.4894 257.544 91.1768C257.544 114.864 238.332 134.082 214.652 134.082H34.1443V133.349C32.1248 133.814 30.0517 134.082 27.8891 134.082C12.5907 134.082 0.187531 121.675 0.187531 106.372C0.187531 91.0695 12.5907 78.6627 27.8891 78.6627C30.7129 78.6627 33.4295 79.0917 36.003 79.8783C40.7391 65.6838 54.1074 55.4222 69.8884 55.4222C70.0671 55.4222 70.2279 55.4401 70.4067 55.4401C74.3564 24.1906 101.004 0.00268555 133.334 0.00268555Z" fill="black"/>
</svg>
