<svg width="46" height="45" viewBox="0 0 46 45" fill="none" xmlns="http://www.w3.org/2000/svg">
<path d="M9.0625 27.1875H36.8542V23.5625H9.0625V27.1875ZM9.0625 19.9375H36.8542V16.3125H9.0625V19.9375ZM9.0625 12.6875H36.8542V9.0625H9.0625V12.6875ZM45.9167 44.8014L37.3653 36.25H4.36873C3.14791 36.25 2.11458 35.8271 1.26875 34.9813C0.422917 34.1354 0 33.1021 0 31.8813V4.36873C0 3.14791 0.422917 2.11458 1.26875 1.26875C2.11458 0.422917 3.14791 0 4.36873 0H41.5479C42.7688 0 43.8021 0.422917 44.6479 1.26875C45.4938 2.11458 45.9167 3.14791 45.9167 4.36873V44.8014ZM4.36873 32.625H38.9083L42.2917 35.9715V4.36873C42.2917 4.18265 42.2141 4.01227 42.0591 3.8576C41.9044 3.70253 41.734 3.625 41.5479 3.625H4.36873C4.18265 3.625 4.01227 3.70253 3.8576 3.8576C3.70254 4.01227 3.625 4.18265 3.625 4.36873V31.8813C3.625 32.0674 3.70254 32.2377 3.8576 32.3924C4.01227 32.5475 4.18265 32.625 4.36873 32.625Z" fill="white"/>
</svg>
