<svg width="23" height="23" viewBox="0 0 23 23" fill="none" xmlns="http://www.w3.org/2000/svg">
<path d="M10.3185 2.47797C6.1361 2.93257 2.77202 6.29665 2.31742 10.3881C1.86281 14.6614 4.31768 18.4801 8.04544 19.9348C8.3182 20.0257 8.59096 19.8439 8.59096 19.4802V18.0255C8.59096 18.0255 8.22728 18.1164 7.77267 18.1164C6.49978 18.1164 5.95426 17.0253 5.86333 16.3889C5.77241 16.0252 5.59057 15.7524 5.31781 15.4797C5.04505 15.3887 4.95412 15.3887 4.95412 15.2978C4.95412 15.116 5.22689 15.116 5.31781 15.116C5.86333 15.116 6.31794 15.7524 6.49978 16.0252C6.95439 16.7526 7.49991 16.9344 7.77267 16.9344C8.13636 16.9344 8.40912 16.8435 8.59096 16.7526C8.68188 16.1161 8.95465 15.4797 9.50017 15.116C7.40899 14.6614 5.86333 13.4794 5.86333 11.4791C5.86333 10.479 6.31794 9.47888 6.95439 8.75151C6.86346 8.56967 6.77254 8.11507 6.77254 7.47862C6.77254 7.11494 6.77254 6.56941 7.04531 6.02389C7.04531 6.02389 8.3182 6.02389 9.59109 7.20586C10.0457 7.02402 10.6821 6.9331 11.3186 6.9331C11.955 6.9331 12.5915 7.02402 13.137 7.20586C14.319 6.02389 15.6828 6.02389 15.6828 6.02389C15.8646 6.56941 15.8646 7.11494 15.8646 7.47862C15.8646 8.20599 15.7737 8.56967 15.6828 8.75151C16.3192 9.47888 16.7738 10.3881 16.7738 11.4791C16.7738 13.4794 15.2282 14.6614 13.137 15.116C13.6825 15.5706 14.0462 16.3889 14.0462 17.2072V19.5711C14.0462 19.8439 14.319 20.1166 14.6827 20.0257C18.0467 18.6619 20.4107 15.3887 20.4107 11.5701C20.4107 6.11481 15.7737 1.84152 10.3185 2.47797Z" fill="black"/>
</svg>
