<svg width="48" height="48" viewBox="0 0 48 48" fill="none" xmlns="http://www.w3.org/2000/svg">
<path d="M8.81752 4.69531C6.48609 4.69531 4.55432 6.62708 4.55432 8.95852V37.9483C4.55432 40.2797 6.48609 42.2115 8.81752 42.2115H37.8073C40.1387 42.2115 42.0705 40.2797 42.0705 37.9483V8.95852C42.0705 6.62708 40.1387 4.69531 37.8073 4.69531H8.81752ZM8.81752 8.10587H37.8073C38.2936 8.10587 38.6599 8.47224 38.6599 8.95852V37.9483C38.6599 38.4346 38.2936 38.8009 37.8073 38.8009H8.81752C8.33125 38.8009 7.96488 38.4346 7.96488 37.9483V8.95852C7.96488 8.47224 8.33125 8.10587 8.81752 8.10587ZM13.8268 11.0368C12.2081 11.0368 10.8958 12.3491 10.8958 13.9678C10.8958 15.5865 12.2081 16.8987 13.8268 16.8987C15.4455 16.8987 16.7577 15.5865 16.7577 13.9678C16.7577 12.3491 15.4455 11.0368 13.8268 11.0368ZM29.2276 18.8172C26.7829 18.8172 25.1576 20.1561 24.4848 21.4284H24.3782V19.1902H19.5821V35.3904H24.5914V27.3969C24.5914 25.2852 25.011 23.2402 27.6289 23.2402C30.2068 23.2402 30.2401 25.625 30.2401 27.5034V35.3904H35.2494V26.4909C35.2494 22.1345 34.3235 18.8172 29.2276 18.8172ZM11.3754 19.1902V35.3904H16.438V19.1902H11.3754Z" fill="black"/>
</svg>
