<svg width="41" height="40" viewBox="0 0 41 40" fill="none" xmlns="http://www.w3.org/2000/svg">
<path d="M20.3566 0.0527344C14.9662 0.0527344 14.2903 0.075582 12.1734 0.172172C10.0609 0.268605 8.61807 0.604071 7.35554 1.09474C6.05039 1.60196 4.94354 2.28061 3.84016 3.384C2.73677 4.48738 2.05812 5.59423 1.5509 6.89938C1.06023 8.16183 0.724764 9.60462 0.628331 11.7172C0.531741 13.8341 0.508972 14.51 0.508972 19.9003C0.508972 25.2905 0.531741 25.9664 0.628331 28.0834C0.724764 30.1959 1.06023 31.6387 1.5509 32.9012C2.05812 34.2063 2.73677 35.3132 3.84016 36.4166C4.94354 37.52 6.05039 38.1987 7.35554 38.7059C8.61807 39.1965 10.0609 39.532 12.1734 39.6284C14.2903 39.725 14.9662 39.7478 20.3566 39.7478C25.7468 39.7478 26.4227 39.725 28.5396 39.6284C30.6522 39.532 32.095 39.1965 33.3574 38.7059C34.6626 38.1987 35.7694 37.52 36.8729 36.4166C37.9762 35.3132 38.6549 34.2063 39.1621 32.9012C39.6527 31.6387 39.9883 30.1959 40.0846 28.0834C40.1812 25.9664 40.204 25.2905 40.204 19.9003C40.204 14.51 40.1812 13.8341 40.0846 11.7172C39.9883 9.60462 39.6527 8.16183 39.1621 6.89938C38.6549 5.59423 37.9762 4.48738 36.8729 3.384C35.7694 2.28061 34.6626 1.60196 33.3574 1.09474C32.095 0.604071 30.6522 0.268605 28.5396 0.172172C26.4227 0.075582 25.7468 0.0527344 20.3566 0.0527344ZM20.3566 3.62894C25.656 3.62894 26.2838 3.64911 28.3766 3.7446C30.3117 3.83291 31.3626 4.15625 32.062 4.42798C32.9885 4.78802 33.6496 5.21819 34.3441 5.91268C35.0387 6.60717 35.4688 7.26841 35.8288 8.19476C36.1006 8.89414 36.4239 9.94505 36.5122 11.8802C36.6077 13.973 36.6279 14.6008 36.6279 19.9003C36.6279 25.1998 36.6077 25.8275 36.5122 27.9204C36.4239 29.8555 36.1006 30.9064 35.8288 31.6058C35.4688 32.5322 35.0387 33.1934 34.3441 33.8879C33.6496 34.5824 32.9885 35.0125 32.062 35.3726C31.3626 35.6444 30.3117 35.9677 28.3766 36.056C26.2841 36.1514 25.6564 36.1717 20.3566 36.1717C15.0566 36.1717 14.429 36.1514 12.3364 36.056C10.4013 35.9677 9.35037 35.6444 8.651 35.3726C7.72457 35.0125 7.06341 34.5824 6.36884 33.8879C5.67435 33.1934 5.24418 32.5322 4.88421 31.6058C4.61241 30.9064 4.28907 29.8555 4.20076 27.9204C4.10527 25.8275 4.0851 25.1998 4.0851 19.9003C4.0851 14.6008 4.10527 13.973 4.20076 11.8802C4.28907 9.94505 4.61241 8.89414 4.88421 8.19476C5.24418 7.26841 5.67435 6.60717 6.36884 5.91268C7.06341 5.21819 7.72457 4.78802 8.651 4.42798C9.35037 4.15625 10.4013 3.83291 12.3364 3.7446C14.4292 3.64911 15.057 3.62894 20.3566 3.62894Z" fill="black"/>
<path d="M20.3565 26.5163C16.7027 26.5163 13.7407 23.5543 13.7407 19.9005C13.7407 16.2466 16.7027 13.2846 20.3565 13.2846C24.0104 13.2846 26.9724 16.2466 26.9724 19.9005C26.9724 23.5543 24.0104 26.5163 20.3565 26.5163ZM20.3565 9.7085C14.7276 9.7085 10.1645 14.2716 10.1645 19.9005C10.1645 25.5294 14.7276 30.0924 20.3565 30.0924C25.9854 30.0924 30.5485 25.5294 30.5485 19.9005C30.5485 14.2716 25.9854 9.7085 20.3565 9.7085Z" fill="#030404"/>
<path d="M33.3329 9.3055C33.3329 10.6209 32.2666 11.6872 30.9512 11.6872C29.6358 11.6872 28.5695 10.6209 28.5695 9.3055C28.5695 7.9901 29.6358 6.92383 30.9512 6.92383C32.2666 6.92383 33.3329 7.9901 33.3329 9.3055Z" fill="#030404"/>
</svg>
