<svg width="158" height="75" viewBox="0 0 158 75" fill="none" xmlns="http://www.w3.org/2000/svg">
<g clip-path="url(#clip0_0_1146)">
<path d="M34.2284 45.9501L66.9003 28.2615C74.4279 24.1557 77.0692 15.0513 72.665 7.66165C68.2608 0.646536 58.4902 -1.81733 50.5644 2.28846L6.24255 26.8069L34.2284 46.025V45.9501Z" fill="#D4D5D6" stroke="#D4D5D6" stroke-width="3" stroke-miterlimit="10"/>
<path d="M58.1737 74.5073C63.5251 74.5073 68.4308 71.7911 70.8826 67.6104C74.9704 61.0625 72.5186 52.2162 65.5313 48.3844L22.8196 25.8056C15.8323 21.9738 6.39321 24.2721 2.30544 30.822C-1.78232 37.37 0.669476 46.2162 7.65678 50.048L50.4438 72.5559C53.3433 74.0894 55.7951 74.5073 58.2469 74.5073H58.1716H58.1737Z" fill="#D4D5D6" stroke="#D4D5D6" stroke-width="3" stroke-miterlimit="10"/>
<path d="M123.772 46.2221L151.757 27.004L107.436 2.48365C99.5077 -1.62214 89.7393 0.841727 85.3351 7.85684C80.9309 15.2465 83.5743 24.3529 91.0997 28.4567L123.772 46.1453V46.2202V46.2221Z" fill="#D4D5D6" stroke="#D4D5D6" stroke-width="3" stroke-miterlimit="10"/>
<path d="M99.7532 74.7043C102.205 74.7043 104.659 74.2865 107.556 72.7529L150.343 50.2451C157.331 46.4133 159.782 37.567 155.695 31.019C151.607 24.4711 142.168 22.1728 135.18 26.0026L92.4688 48.5815C85.4815 52.4133 83.0297 61.2595 87.1175 67.8075C89.5693 71.9862 94.475 74.7043 99.8263 74.7043H99.751H99.7532Z" fill="#D4D5D6" stroke="#D4D5D6" stroke-width="3" stroke-miterlimit="10"/>
<path d="M39.1427 38.4757L63.6521 25.4389C69.2983 22.4133 71.2808 15.7017 67.9766 10.2576C64.6724 5.08743 57.3428 3.27205 51.3974 6.29768L8.98706 28.7937L39.1427 38.5309V38.4757Z" fill="#EA4535" stroke="black" stroke-width="3" stroke-miterlimit="10"/>
<path d="M57.345 71.59C61.6695 71.59 65.6346 69.4455 67.6171 66.1439C70.9214 60.9737 68.9388 53.9882 63.2926 50.9626L20.9426 28.4645C15.2963 25.4389 7.66755 27.2543 4.36332 32.4245C1.0591 37.5946 3.04163 44.5802 8.68787 47.6058L51.0982 70.0486C53.4402 71.2589 55.4227 71.5881 57.4053 71.5881H57.345V71.59Z" fill="#4285F4" stroke="black" stroke-width="3" stroke-miterlimit="10"/>
<path d="M99.456 71.59C101.439 71.59 103.421 70.9849 105.404 70.0506L147.814 47.6077L118.319 37.5966L93.4503 50.6334C87.8041 53.659 85.8216 60.3705 89.1258 65.8147C91.4678 69.7746 95.4329 71.59 99.3979 71.59H99.4582H99.456Z" fill="#F9BC15" stroke="black" stroke-width="3" stroke-miterlimit="10"/>
<path d="M141.866 49.4212C146.191 49.4212 150.156 47.2767 152.139 43.9751C155.443 38.8049 153.46 31.8194 147.814 28.7937L105.404 6.3509C99.7574 3.32528 92.1287 5.14065 88.8244 10.3108C85.5202 15.481 87.5028 22.4665 93.149 25.4922L135.559 47.935C137.542 48.8693 139.884 49.4744 141.866 49.4744V49.4192V49.4212Z" fill="#0F9D58" stroke="black" stroke-width="3" stroke-miterlimit="10"/>
</g>
<defs>
<clipPath id="clip0_0_1146">
<rect width="158" height="75" fill="white"/>
</clipPath>
</defs>
</svg>
