<svg width="27" height="27" viewBox="0 0 27 27" fill="none" xmlns="http://www.w3.org/2000/svg">
<path d="M6.43763 4.85449C5.32896 4.85449 4.41034 5.77311 4.41034 6.88178V20.6674C4.41034 21.776 5.32896 22.6947 6.43763 22.6947H20.2232C21.3319 22.6947 22.2505 21.776 22.2505 20.6674V6.88178C22.2505 5.77311 21.3319 4.85449 20.2232 4.85449H6.43763ZM6.43763 6.47633H20.2232C20.4544 6.47633 20.6287 6.65055 20.6287 6.88178V20.6674C20.6287 20.8986 20.4544 21.0728 20.2232 21.0728H6.43763C6.20639 21.0728 6.03217 20.8986 6.03217 20.6674V6.88178C6.03217 6.65055 6.20639 6.47633 6.43763 6.47633ZM8.8197 7.87009C8.04996 7.87009 7.42594 8.49411 7.42594 9.26385C7.42594 10.0336 8.04996 10.6576 8.8197 10.6576C9.58944 10.6576 10.2135 10.0336 10.2135 9.26385C10.2135 8.49411 9.58944 7.87009 8.8197 7.87009ZM16.1433 11.5699C14.9808 11.5699 14.2079 12.2066 13.8879 12.8116H13.8372V11.7473H11.5565V19.451H13.9386V15.6498C13.9386 14.6457 14.1382 13.6732 15.3831 13.6732C16.6089 13.6732 16.6248 14.8072 16.6248 15.7005V19.451H19.0068V15.219C19.0068 13.1474 18.5665 11.5699 16.1433 11.5699ZM7.65401 11.7473V19.451H10.0614V11.7473H7.65401Z" fill="black"/>
</svg>
